<svg xmlns="http://www.w3.org/2000/svg" version="1.1" xmlns:xlink="http://www.w3.org/1999/xlink" width="512" height="512" x="0" y="0" viewBox="0 0 32 32" style="enable-background:new 0 0 512 512" xml:space="preserve" class=""><g><path d="M2 14.35h10.85c.83 0 1.5-.67 1.5-1.5V2c0-.83-.67-1.5-1.5-1.5H2C1.17.5.5 1.17.5 2v10.85c0 .83.67 1.5 1.5 1.5zM30 .5H19.15c-.83 0-1.5.67-1.5 1.5v10.85c0 .83.67 1.5 1.5 1.5H30c.83 0 1.5-.67 1.5-1.5V2c0-.83-.67-1.5-1.5-1.5zM2 31.5h10.85c.83 0 1.5-.67 1.5-1.5V19.15c0-.83-.67-1.5-1.5-1.5H2c-.83 0-1.5.67-1.5 1.5V30c0 .83.67 1.5 1.5 1.5zM30 17.65H19.15c-.83 0-1.5.67-1.5 1.5V30c0 .83.67 1.5 1.5 1.5H30c.83 0 1.5-.67 1.5-1.5V19.15c0-.83-.67-1.5-1.5-1.5z" fill="#000000" opacity="1" data-original="#000000" class=""></path></g></svg>